<svg width="154" height="136" viewBox="0 0 154 136" fill="none" xmlns="http://www.w3.org/2000/svg">
<path d="M91.588 81.2973L77.0879 107.724L61.9876 81.4561L91.588 81.2973ZM95.2264 81.5823L75.4794 110.044L60.7733 78.8831L95.2264 81.5823ZM99.3564 82.4048L72.6103 113.372L59.24 74.4157L99.3564 82.4048ZM104.167 83.9284L68.7163 117.006L58.1109 69.3411L104.167 83.9284ZM110.13 86.585L63.4005 120.912L57.4737 63.1283L110.13 86.585ZM115.936 89.958L57.4737 124.408V55.9908L115.936 89.958ZM122.591 94.8224L50.2363 127.697L58.2825 47.8188L122.591 94.8224ZM129.751 101.328L41.0927 130.729L60.2706 38.1941L129.751 101.328ZM137.319 109.832L30.0049 133.137L63.7724 27.1974L137.319 109.832ZM145.157 120.779L16.5943 134.576L69.2338 14.7267L145.157 120.779ZM153 134.576L1 134.576L77.0604 1L153 134.576Z" stroke="#B4B4B4" stroke-width="1.5" stroke-linecap="round" stroke-linejoin="round"/>
<path d="M99.9019 57.3976H81.2578V120.302H99.9019C141.563 120.302 141.563 57.3976 99.9019 57.3976ZM99.9019 107.725H93.8486V69.9756H99.9019C124.236 69.9756 124.236 107.71 99.9019 107.71V107.725Z" fill="#E4E4E4"/>
<path d="M50.9288 84.6029L28.9469 57.3976H24.8608V120.302H37.7489V85.7265L50.9288 102.37L64.1241 85.7265L64.032 120.302H76.92V57.3976H72.9108L50.9288 84.6029Z" fill="#E4E4E4"/>
</svg>
