<svg width="72" height="63" viewBox="0 0 72 63" fill="none" xmlns="http://www.w3.org/2000/svg">
<path d="M42.7623 38.0181L36.0776 50.2012L29.1161 38.0914L42.7623 38.0181ZM44.4396 38.1496L35.336 51.2706L28.5563 36.9052L44.4396 38.1496ZM46.3436 38.5287L34.0133 52.8051L27.8494 34.8457L46.3436 38.5287ZM48.5612 39.2311L32.2181 54.4803L27.3289 32.5062L48.5612 39.2311ZM51.3106 40.4559L29.7675 56.281L27.0351 29.642L51.3106 40.4559ZM53.987 42.0109L27.0351 57.8929V26.3515L53.987 42.0109ZM57.0551 44.2534L23.6986 59.4091L27.408 22.5841L57.0551 44.2534ZM60.3559 47.2527L19.4833 60.8068L28.3245 18.147L60.3559 47.2527ZM63.8451 51.173L14.3716 61.9168L29.9389 13.0774L63.8451 51.173ZM67.4582 56.22L8.18921 62.5802L32.4567 7.32821L67.4582 56.22ZM71.0741 62.5802L1 62.5802L36.0649 1L71.0741 62.5802Z" stroke="#707070" stroke-width="0.7" stroke-linecap="round" stroke-linejoin="round"/>
<path d="M24.8253 39.0432H18.2041V60.9719H24.8253C39.6208 60.9719 39.6208 39.0432 24.8253 39.0432ZM24.8253 56.5873H22.6756V43.4279H24.8253C33.4672 43.4279 33.4672 56.582 24.8253 56.582V56.5873Z" fill="#F3F3F3"/>
<path d="M23.5356 34.897H27.9801V17.3529H33.5103V13H18V17.3529H23.5356V34.897Z" fill="#F3F3F3"/>
<path d="M45.409 22.6283L37.7184 13H36.2888V35.2628H40.7979V23.026L45.409 28.9164L50.0256 23.026L49.9933 35.2628H54.5024V13H53.0997L45.409 22.6283Z" fill="#F3F3F3"/>
<path d="M52.9009 50.0076C54.2983 49.0585 54.8895 47.3567 54.954 45.6812C55.0453 41.8161 52.5893 39.0273 48.6445 39.0273H39.8467V60.9879H48.6445C49.5144 60.981 50.3744 60.8048 51.1751 60.4693C51.9759 60.1339 52.7016 59.6457 53.3107 59.0329C53.9198 58.4202 54.4003 57.6949 54.7247 56.8985C55.0491 56.1022 55.2111 55.2505 55.2012 54.3923C55.207 53.5322 55.0007 52.6836 54.6 51.9197C54.1992 51.1558 53.6161 50.4996 52.9009 50.0076ZM44.302 43.412H48.2521C49.5258 43.412 50.3051 44.3928 50.3051 45.6176C50.3272 45.8979 50.2907 46.1797 50.1978 46.4455C50.1049 46.7113 49.9577 46.9554 49.7652 47.1627C49.5727 47.37 49.339 47.5362 49.0787 47.6507C48.8184 47.7652 48.537 47.8258 48.2521 47.8286H44.302V43.412ZM48.2521 56.5979H44.302V52.2133H48.2521C48.5454 52.2061 48.8372 52.2573 49.1099 52.3639C49.3827 52.4706 49.6309 52.6304 49.8396 52.8338C50.0483 53.0372 50.2133 53.2802 50.3246 53.5479C50.436 53.8157 50.4916 54.1029 50.4879 54.3923C50.4914 54.6811 50.4368 54.9678 50.327 55.2356C50.2173 55.5034 50.0547 55.747 49.8486 55.9522C49.6426 56.1574 49.3972 56.3203 49.1268 56.4311C48.8565 56.542 48.5664 56.5986 48.2736 56.5979H48.2521Z" fill="#F3F3F3"/>
</svg>
