<svg width="116" height="102" viewBox="0 0 116 102" fill="none" xmlns="http://www.w3.org/2000/svg">
<path d="M68.941 61.1137L58.0659 80.8977L46.7407 61.2326L68.941 61.1137ZM71.6698 61.3271L56.8596 82.6343L45.8299 59.3063L71.6698 61.3271ZM74.7673 61.9428L54.7077 85.1262L44.68 55.9619L74.7673 61.9428ZM78.375 63.0834L51.7872 87.8466L43.8332 52.1628L78.375 63.0834ZM82.8478 65.0723L47.8004 90.7706L43.3552 47.5116L82.8478 65.0723ZM87.2018 67.5974L43.3552 93.3882V42.1682L87.2018 67.5974ZM92.1933 71.2391L37.9272 95.8504L43.9618 36.0504L92.1933 71.2391ZM97.5631 76.1096L31.0695 98.1202L45.4529 28.845L97.5631 76.1096ZM103.239 82.4758L22.7537 99.9226L48.0793 20.6124L103.239 82.4758ZM109.117 90.6716L12.6958 101L52.1753 11.2764L109.117 90.6716ZM115 101L1 101L58.0453 1L115 101Z" stroke="white" stroke-linecap="round" stroke-linejoin="round"/>
</svg>
