<svg width="27" height="27" viewBox="0 0 27 27" fill="none" xmlns="http://www.w3.org/2000/svg">
<path d="M19.3259 15.9857C19.4321 15.1161 19.5117 14.2466 19.5117 13.3506C19.5117 12.4547 19.4321 11.5852 19.3259 10.7156H23.8113C24.0236 11.5588 24.1563 12.4415 24.1563 13.3506C24.1563 14.2597 24.0236 15.1425 23.8113 15.9857H19.3259ZM16.9771 23.3112C17.7733 21.8488 18.3838 20.2677 18.8084 18.6208H22.7231C21.4492 20.7947 19.4188 22.4812 16.9771 23.3112ZM16.6454 15.9857H10.4349C10.3022 15.1161 10.2226 14.2466 10.2226 13.3506C10.2226 12.4547 10.3022 11.572 10.4349 10.7156H16.6454C16.7648 11.572 16.8577 12.4547 16.8577 13.3506C16.8577 14.2466 16.7648 15.1161 16.6454 15.9857ZM13.5402 23.8382C12.4387 22.2572 11.5496 20.5049 11.0056 18.6208H16.0748C15.5307 20.5049 14.6416 22.2572 13.5402 23.8382ZM8.2321 8.08051H4.35722C5.61789 5.8934 7.66149 4.20695 10.0899 3.39008C9.29372 4.85254 8.69656 6.43359 8.2321 8.08051ZM4.35722 18.6208H8.2321C8.69656 20.2677 9.29372 21.8488 10.0899 23.3112C7.66149 22.4812 5.61789 20.7947 4.35722 18.6208ZM3.26907 15.9857C3.05675 15.1425 2.92405 14.2597 2.92405 13.3506C2.92405 12.4415 3.05675 11.5588 3.26907 10.7156H7.75438C7.64822 11.5852 7.5686 12.4547 7.5686 13.3506C7.5686 14.2466 7.64822 15.1161 7.75438 15.9857H3.26907ZM13.5402 2.84989C14.6416 4.43093 15.5307 6.19643 16.0748 8.08051H11.0056C11.5496 6.19643 12.4387 4.43093 13.5402 2.84989ZM22.7231 8.08051H18.8084C18.3838 6.43359 17.7733 4.85254 16.9771 3.39008C19.4188 4.22013 21.4492 5.8934 22.7231 8.08051ZM13.5402 0.175293C6.20177 0.175293 0.27002 6.1042 0.27002 13.3506C0.27002 16.845 1.66812 20.1962 4.15675 22.667C5.389 23.8905 6.85189 24.861 8.4619 25.5231C10.0719 26.1852 11.7975 26.526 13.5402 26.526C17.0596 26.526 20.4349 25.1379 22.9236 22.667C25.4122 20.1962 26.8103 16.845 26.8103 13.3506C26.8103 11.6204 26.4671 9.90717 25.8002 8.30866C25.1333 6.71015 24.1558 5.25771 22.9236 4.03427C21.6913 2.81082 20.2284 1.84033 18.6184 1.17821C17.0084 0.516084 15.2828 0.175293 13.5402 0.175293Z" fill="white"/>
</svg>
