<svg width="37" height="15" viewBox="0 0 37 15" fill="none" xmlns="http://www.w3.org/2000/svg">
<path d="M3.73815 0H0V14.4459H3.73815V0Z" fill="white"/>
<path fill-rule="evenodd" clip-rule="evenodd" d="M11.6928 0L10.8282 6.75778L10.2962 3.08662C10.1365 1.90184 9.99044 0.878035 9.84369 0H5.00199V14.4451H8.27437L8.28738 4.90723L9.65793 14.4451H11.9858L13.3023 4.69422V14.4451H16.5617V0H11.6928Z" fill="white"/>
<path fill-rule="evenodd" clip-rule="evenodd" d="M22.4027 2.60711C22.5482 2.68637 22.6419 2.81889 22.6807 3.00613C22.7354 3.19312 22.7484 3.6179 22.7484 4.26993V9.8704C22.7484 10.8275 22.6807 11.4137 22.5612 11.627C22.4417 11.853 22.1092 11.9595 21.5767 11.9595V2.47337C21.9767 2.47337 22.2547 2.51361 22.4027 2.60711ZM22.3612 14.4451C23.2525 14.4451 23.9317 14.3931 24.371 14.2996C24.823 14.2062 25.1954 14.033 25.488 13.7801C25.7933 13.5411 26.0063 13.1956 26.1261 12.7563C26.2458 12.317 26.3263 11.452 26.3263 10.1619V5.09545C26.3263 3.7249 26.2731 2.80637 26.1808 2.34134C26.1008 1.87053 25.888 1.43238 25.5673 1.07852C25.2348 0.69153 24.7437 0.4265 24.1045 0.252513C23.4785 0.0939855 22.4287 0.000488281 20.6334 0.000488281H17.839V14.4451H22.3612Z" fill="white"/>
<path fill-rule="evenodd" clip-rule="evenodd" d="M32.4448 10.9487C32.4448 11.6397 32.4058 12.079 32.338 12.2648C32.2703 12.4505 31.9665 12.544 31.7405 12.544C31.5275 12.544 31.3677 12.4505 31.3015 12.279C31.221 12.105 31.182 11.6932 31.182 11.0552V7.23581C31.182 6.58379 31.221 6.17201 31.2885 6.01226C31.3559 5.8525 31.5015 5.77299 31.7145 5.77299C31.9407 5.77299 32.246 5.85373 32.3253 6.0525C32.4058 6.23827 32.4448 6.63827 32.4448 7.23581V10.9487ZM27.5901 0V14.4451H30.9559L31.182 13.5281C31.4872 13.8996 31.82 14.1801 32.1928 14.3659C32.5513 14.5376 33.0968 14.6321 33.5228 14.6321C34.1206 14.6321 34.6271 14.4849 35.0534 14.1659C35.4781 13.8594 35.7574 13.4866 35.8769 13.0616C35.9834 12.6353 36.0509 11.9963 36.0509 11.131V7.07729C36.0509 6.21226 36.0237 5.64048 35.9834 5.37422C35.9432 5.10796 35.8379 4.8287 35.6509 4.54944C35.4507 4.26993 35.1729 4.05692 34.8129 3.89717C34.4531 3.75165 34.0276 3.67116 33.5228 3.67116C33.0968 3.67116 32.5513 3.76465 32.1797 3.92318C31.8197 4.09717 31.4872 4.3622 31.182 4.70846V0H27.5901Z" fill="white"/>
</svg>
