<svg width="28" height="27" viewBox="0 0 28 27" fill="none" xmlns="http://www.w3.org/2000/svg">
<path d="M8.24624 0.175293H19.3932C23.6396 0.175293 27.0898 3.60089 27.0898 7.817V18.8843C27.0898 20.911 26.2789 22.8547 24.8355 24.2878C23.3921 25.7209 21.4345 26.526 19.3932 26.526H8.24624C3.9998 26.526 0.549561 23.1004 0.549561 18.8843V7.817C0.549561 5.79029 1.36046 3.8466 2.80387 2.4135C4.24727 0.980399 6.20496 0.175293 8.24624 0.175293ZM7.98084 2.81036C6.71383 2.81036 5.49872 3.31009 4.60281 4.19959C3.70691 5.0891 3.20359 6.29554 3.20359 7.55349V19.1478C3.20359 21.7697 5.34008 23.8909 7.98084 23.8909H19.6586C20.9256 23.8909 22.1407 23.3912 23.0366 22.5017C23.9325 21.6122 24.4358 20.4058 24.4358 19.1478V7.55349C24.4358 4.9316 22.2993 2.81036 19.6586 2.81036H7.98084ZM20.7865 4.78667C21.2265 4.78667 21.6484 4.96018 21.9595 5.26904C22.2705 5.5779 22.4453 5.9968 22.4453 6.43359C22.4453 6.87038 22.2705 7.28928 21.9595 7.59814C21.6484 7.90699 21.2265 8.08051 20.7865 8.08051C20.3466 8.08051 19.9247 7.90699 19.6136 7.59814C19.3025 7.28928 19.1278 6.87038 19.1278 6.43359C19.1278 5.9968 19.3025 5.5779 19.6136 5.26904C19.9247 4.96018 20.3466 4.78667 20.7865 4.78667ZM13.8197 6.76297C15.5794 6.76297 17.2671 7.45703 18.5114 8.69246C19.7557 9.92789 20.4548 11.6035 20.4548 13.3506C20.4548 15.0978 19.7557 16.7734 18.5114 18.0088C17.2671 19.2443 15.5794 19.9383 13.8197 19.9383C12.06 19.9383 10.3723 19.2443 9.128 18.0088C7.88368 16.7734 7.18463 15.0978 7.18463 13.3506C7.18463 11.6035 7.88368 9.92789 9.128 8.69246C10.3723 7.45703 12.06 6.76297 13.8197 6.76297ZM13.8197 9.39804C12.7639 9.39804 11.7513 9.81448 11.0047 10.5557C10.2581 11.297 9.83866 12.3024 9.83866 13.3506C9.83866 14.3989 10.2581 15.4043 11.0047 16.1456C11.7513 16.8868 12.7639 17.3033 13.8197 17.3033C14.8755 17.3033 15.8881 16.8868 16.6347 16.1456C17.3813 15.4043 17.8007 14.3989 17.8007 13.3506C17.8007 12.3024 17.3813 11.297 16.6347 10.5557C15.8881 9.81448 14.8755 9.39804 13.8197 9.39804Z" fill="white"/>
</svg>
