<svg width="61" height="65" viewBox="0 0 61 65" fill="none" xmlns="http://www.w3.org/2000/svg">
<g clip-path="url(#clip0)">
<path d="M34.6175 34.2676L29.9136 42.8407L25.0148 34.3192L34.6175 34.2676ZM35.7978 34.3601L29.3917 43.5933L24.6209 33.4845L35.7978 34.3601ZM37.1377 34.6269L28.461 44.6731L24.1235 32.0352L37.1377 34.6269ZM38.6982 35.1212L27.1977 45.8519L23.7572 30.3889L38.6982 35.1212ZM40.6329 35.983L25.4732 47.119L23.5505 28.3734L40.6329 35.983ZM42.5162 37.0773L23.5505 48.2533V26.0579L42.5162 37.0773ZM44.6752 38.6553L21.2026 49.3202L23.8129 23.4069L44.6752 38.6553ZM46.9979 40.7659L18.2363 50.3038L24.4578 20.2845L46.9979 40.7659ZM49.4532 43.5246L14.6393 51.0848L25.5939 16.7171L49.4532 43.5246ZM51.9957 47.0761L10.2888 51.5517L27.3656 12.6715L51.9957 47.0761ZM54.5402 51.5517L5.22986 51.5517L29.9046 8.21838L54.5402 51.5517Z" stroke="#707070" stroke-width="0.5" stroke-linecap="round" stroke-linejoin="round"/>
<path d="M50.8206 59.3066C56.6031 59.3066 60.5135 55.4489 60.5135 49.7443V9.56232C60.5135 3.85775 56.6031 3.05176e-05 50.8206 3.05176e-05H9.69297C3.91052 3.05176e-05 0.00012207 3.85775 0.00012207 9.56232V64.9963L4.96565 59.3066V9.56232C4.96765 8.32803 5.46555 7.14486 6.35024 6.27208C7.23493 5.39931 8.43426 4.90812 9.6854 4.90615H50.8131C52.0642 4.90812 53.2635 5.39931 54.1482 6.27208C55.0329 7.14486 55.5308 8.32803 55.5328 9.56232V49.7443C55.5308 50.9786 55.0329 52.1618 54.1482 53.0346C53.2635 53.9074 52.0642 54.3985 50.8131 54.4005H16.3112L11.3419 59.3066L11.3116 59.2693" fill="black"/>
<path d="M21.4356 31.0525H16.7763V46.4835H21.4356C31.847 46.4835 31.847 31.0525 21.4356 31.0525ZM21.4356 43.3981H19.9228V34.1379H21.4356C27.5168 34.1379 27.5168 43.3944 21.4356 43.3944V43.3981Z" fill="black"/>
<path d="M20.5279 28.1348H23.6555V15.7892H27.547V12.7262H16.6326V15.7892H20.5279V28.1348Z" fill="black"/>
<path d="M35.9201 19.5015L30.5082 12.7262H29.5023V28.3923H32.6752V19.7813L35.9201 23.9264L39.1687 19.7813L39.146 28.3923H42.3189V12.7262H41.3319L35.9201 19.5015Z" fill="black"/>
<path d="M41.1919 38.768C42.1752 38.1002 42.5913 36.9026 42.6366 35.7236C42.7009 33.0038 40.9726 31.0413 38.1967 31.0413H32.0058V46.4947H38.1967C38.8089 46.4898 39.414 46.3659 39.9775 46.1298C40.541 45.8937 41.0516 45.5502 41.4803 45.119C41.9089 44.6878 42.2471 44.1775 42.4753 43.6171C42.7036 43.0567 42.8176 42.4574 42.8106 41.8535C42.8147 41.2482 42.6695 40.6511 42.3875 40.1135C42.1055 39.576 41.6952 39.1142 41.1919 38.768V38.768ZM35.141 34.1268H37.9206C38.8169 34.1268 39.3653 34.817 39.3653 35.6788C39.3808 35.876 39.3551 36.0743 39.2897 36.2614C39.2244 36.4484 39.1208 36.6202 38.9853 36.7661C38.8499 36.912 38.6854 37.0289 38.5023 37.1095C38.3191 37.1901 38.1211 37.2327 37.9206 37.2346H35.141V34.1268ZM37.9206 43.4055H35.141V40.3201H37.9206C38.127 40.3151 38.3323 40.3511 38.5242 40.4261C38.7162 40.5012 38.8908 40.6136 39.0377 40.7568C39.1846 40.8999 39.3006 41.0709 39.379 41.2593C39.4574 41.4477 39.4965 41.6498 39.4939 41.8535C39.4964 42.0567 39.4579 42.2585 39.3807 42.4469C39.3035 42.6353 39.189 42.8067 39.0441 42.9512C38.8991 43.0956 38.7264 43.2102 38.5361 43.2882C38.3459 43.3662 38.1418 43.406 37.9357 43.4055H37.9206Z" fill="black"/>
</g>
<defs>
<clipPath id="clip0">
<rect width="60.5172" height="65" fill="white"/>
</clipPath>
</defs>
</svg>
