<svg width="72" height="63" viewBox="0 0 72 63" fill="none" xmlns="http://www.w3.org/2000/svg">
<path d="M42.7623 38.0181L36.0776 50.2012L29.1161 38.0914L42.7623 38.0181ZM44.4396 38.1496L35.336 51.2706L28.5563 36.9052L44.4396 38.1496ZM46.3436 38.5287L34.0133 52.8051L27.8494 34.8457L46.3436 38.5287ZM48.5612 39.2311L32.2181 54.4803L27.3289 32.5062L48.5612 39.2311ZM51.3106 40.4559L29.7675 56.281L27.0351 29.642L51.3106 40.4559ZM53.987 42.0109L27.0351 57.8929V26.3515L53.987 42.0109ZM57.0551 44.2534L23.6986 59.4091L27.408 22.5841L57.0551 44.2534ZM60.3559 47.2527L19.4833 60.8068L28.3245 18.147L60.3559 47.2527ZM63.8451 51.173L14.3716 61.9168L29.9389 13.0774L63.8451 51.173ZM67.4582 56.22L8.18921 62.5802L32.4567 7.32821L67.4582 56.22ZM71.0741 62.5802L1 62.5802L36.0649 1L71.0741 62.5802Z" stroke="#B7B7B7" stroke-width="0.7" stroke-linecap="round" stroke-linejoin="round"/>
<path d="M46.5952 27H38V56H46.5952C65.8016 56 65.8016 27 46.5952 27ZM46.5952 50.2015H43.8045V32.7986H46.5952C57.8135 32.7986 57.8135 50.1945 46.5952 50.1945V50.2015Z" fill="#F3F3F3"/>
<path d="M24.0177 39.542L13.8837 27H12V56H17.9416V40.06L24.0177 47.733L30.1009 40.06L30.0584 56H36V27H34.1517L24.0177 39.542Z" fill="#F3F3F3"/>
</svg>
