<svg width="146" height="58" viewBox="0 0 146 58" fill="none" xmlns="http://www.w3.org/2000/svg">
<g clip-path="url(#clip0)">
<path d="M18.0575 36.9583H20.5449V26.946H23.6417V24.4609H14.9607V26.946H18.0575V36.9583Z" fill="white"/>
<path d="M31.7312 36.9583H34.2187V24.4429H31.7312V29.449H28.0072V24.4429H25.5198V36.9583H28.0072V31.9521H31.7312V36.9583Z" fill="white"/>
<path d="M43.4587 34.4552H38.7921V31.9521H42.7777V29.449H38.7921V26.9459H43.2473V24.4429H36.301V36.9583H43.4587V34.4552Z" fill="white"/>
<path d="M56.5555 29.7701L51.6487 24.2734H50.8494V36.9836H53.3691V29.9973L56.5555 33.3588L59.7383 29.9973L59.7203 36.9836H62.2436V24.2734H61.4587L56.5555 29.7701Z" fill="white"/>
<path d="M70.6703 24.2554C62.1112 24.2554 62.1112 37.1566 70.6703 37.1566C79.2295 37.1566 79.2366 24.2554 70.6703 24.2554ZM70.6703 34.567C65.6954 34.567 65.6954 26.8305 70.6703 26.8305C75.6452 26.8305 75.6524 34.567 70.6703 34.567Z" fill="white"/>
<path d="M93.7062 24.4645H91.2188V36.9799H93.7062V24.4645Z" fill="white"/>
<path d="M98.276 34.4804V31.9773H102.265V29.4742H98.276V26.9712H102.735V24.4645H95.7886V36.9835H102.943V34.4804H98.276Z" fill="white"/>
<path d="M113.817 24.6088H110.111V37.1241H113.817C122.097 37.1241 122.097 24.6088 113.817 24.6088ZM113.817 34.6211H112.599V27.1118H113.817C118.663 27.1118 118.663 34.6211 113.817 34.6211Z" fill="white"/>
<path d="M129.308 30.8556C130.09 30.3146 130.423 29.3336 130.455 28.3886C130.509 26.1813 129.133 24.5907 126.925 24.5907H122V37.1241H126.907C127.394 37.1204 127.875 37.0199 128.324 36.8284C128.772 36.637 129.178 36.3583 129.519 36.0085C129.86 35.6586 130.129 35.2445 130.311 34.7897C130.492 34.335 130.583 33.8487 130.577 33.3587C130.581 32.8695 130.468 32.3866 130.247 31.9508C130.026 31.515 129.704 31.1393 129.308 30.8556ZM124.505 27.0902H126.717C127.033 27.1143 127.329 27.2577 127.544 27.4918C127.76 27.7258 127.88 28.0333 127.88 28.3525C127.88 28.6718 127.76 28.9792 127.544 29.2133C127.329 29.4474 127.033 29.5908 126.717 29.6149H124.505V27.0902ZM126.717 34.6175H124.505V32.1144H126.717C126.881 32.1105 127.044 32.1399 127.197 32.2009C127.349 32.2618 127.488 32.3531 127.605 32.4693C127.722 32.5854 127.814 32.724 127.876 32.8768C127.939 33.0296 127.97 33.1935 127.968 33.3587C127.97 33.5248 127.939 33.6898 127.877 33.8438C127.816 33.9978 127.724 34.1378 127.607 34.2554C127.49 34.3731 127.351 34.466 127.199 34.5288C127.046 34.5916 126.882 34.623 126.717 34.6211V34.6175Z" fill="white"/>
<path d="M83.5592 31.2235L80.2867 24.4645H77.4158L83.2832 37.2468H83.8387L89.7061 24.4645H86.8351L83.5592 31.2235Z" fill="white"/>
<path d="M137.222 52.7487C142.455 52.7487 145.996 49.1852 145.996 43.9193V8.833C145.996 3.56716 142.455 0.00366211 137.222 0.00366211H8.77419C3.54121 0.00366211 0 3.56716 0 8.833V58.0037L4.50181 52.7522V8.833C4.50371 7.69336 4.95442 6.6009 5.75524 5.79505C6.55606 4.9892 7.64166 4.53566 8.77419 4.53375H137.222C138.355 4.53566 139.44 4.9892 140.241 5.79505C141.042 6.6009 141.493 7.69336 141.495 8.833V43.9193C141.493 45.059 141.042 46.1514 140.241 46.9573C139.44 47.7631 138.355 48.2167 137.222 48.2186H15.4373L10.9355 52.7487L10.9069 52.7126L137.222 52.7487Z" fill="white"/>
<path d="M15.1863 19.0616V13.6515H17.3009C19.3941 13.6515 19.387 16.9913 17.3009 16.9913H16.2615V19.058H15.1863V19.0616ZM17.2113 15.9418C17.9282 15.9418 17.9282 14.7299 17.2113 14.7299H16.2615V15.9418H17.2113Z" fill="white"/>
<path d="M22.9893 13.5577C26.6918 13.5577 26.6918 19.1374 22.9893 19.1374C19.2868 19.1374 19.2868 13.5577 22.9893 13.5577ZM22.9893 14.6722C20.8387 14.6722 20.8387 18.0193 22.9893 18.0193C25.1398 18.0193 25.1434 14.6686 22.9893 14.6686V14.6722Z" fill="white"/>
<path d="M29.1003 19.1771L26.896 13.6479H28.1075L29.1828 16.4107L30.2365 13.6984H30.2902L31.344 16.4107L32.4193 13.6479H33.6308L31.4336 19.1518H31.2365L30.2509 16.7497L29.2724 19.1735H29.086L29.1003 19.1771Z" fill="white"/>
<path d="M34.9821 19.0616V13.6515H37.6595V14.7335H36.043V15.8155H37.4588V16.8976H36.043V17.9796H37.7527V19.0616H34.9678H34.9821Z" fill="white"/>
<path d="M42.1291 19.0616L41.0538 16.9949H40.5269V19.0616H39.4517V13.6515H41.5735C43.4911 13.6515 43.681 16.371 42.1004 16.8326L43.3513 19.0652H42.1327L42.1291 19.0616ZM40.5269 15.9418H41.4767C42.1936 15.9418 42.1936 14.7299 41.4767 14.7299H40.5269V15.9418Z" fill="white"/>
<path d="M44.7419 19.0616V13.6515H47.4373V14.7335H45.8208V15.8155H47.2365V16.8976H45.8208V17.9796H47.5305V19.0616H44.7455H44.7419Z" fill="white"/>
<path d="M50.8172 19.0616H49.2151V13.6515H50.8172C54.3979 13.6479 54.3979 19.0616 50.8172 19.0616ZM50.2904 14.7335V17.9796H50.8172C52.9104 17.9796 52.9104 14.7335 50.8172 14.7335H50.2904Z" fill="white"/>
<path d="M64.5017 16.6235L62.6272 13.6479H63.9355L65.0358 15.5126L66.1362 13.6479H67.4516L65.5699 16.6235V19.0617H64.4947V16.6235H64.5017Z" fill="white"/>
<path d="M61.1648 16.4107C61.326 16.282 61.4549 16.117 61.5414 15.9291C61.6279 15.7413 61.6696 15.5357 61.663 15.3287C61.6852 15.1164 61.6618 14.9018 61.5945 14.6995C61.5271 14.4971 61.4173 14.3116 61.2725 14.1557C61.1277 13.9997 60.9514 13.8769 60.7553 13.7955C60.5592 13.7141 60.348 13.6761 60.1361 13.684H58.0071V19.0941H60.1361C60.3466 19.0927 60.5548 19.0495 60.7487 18.9669C60.9426 18.8843 61.1183 18.7639 61.2659 18.6128C61.4134 18.4616 61.5299 18.2826 61.6085 18.0861C61.6871 17.8896 61.7263 17.6793 61.7239 17.4675C61.7203 17.2594 61.6679 17.0551 61.5707 16.8714C61.4735 16.6877 61.3344 16.5299 61.1648 16.4107ZM59.0895 14.7841H60.0465C60.174 14.8051 60.2899 14.871 60.3736 14.9701C60.4572 15.0692 60.5032 15.1951 60.5032 15.3251C60.5032 15.4551 60.4572 15.5809 60.3736 15.68C60.2899 15.7791 60.174 15.8451 60.0465 15.8661H59.0895V14.7841ZM60.0465 18.0301H59.0895V16.9481H60.0465C60.1175 16.9462 60.1882 16.9587 60.2542 16.9849C60.3203 17.0111 60.3804 17.0505 60.431 17.1007C60.4815 17.1509 60.5215 17.2109 60.5484 17.277C60.5754 17.3431 60.5887 17.4141 60.5877 17.4855C60.5902 17.5585 60.5778 17.6312 60.5514 17.6993C60.525 17.7673 60.485 17.8292 60.4341 17.8812C60.3831 17.9331 60.3221 17.9741 60.2548 18.0016C60.1876 18.0291 60.1155 18.0424 60.0429 18.0409L60.0465 18.0301Z" fill="white"/>
</g>
<defs>
<clipPath id="clip0">
<rect width="146" height="58" fill="white"/>
</clipPath>
</defs>
</svg>
