<svg width="33" height="33" viewBox="0 0 33 33" fill="none" xmlns="http://www.w3.org/2000/svg">
<path d="M30.3405 8.44562C29.3187 8.90676 28.2173 9.20979 27.076 9.35472C28.2438 8.65642 29.1462 7.54969 29.5708 6.21898C28.4694 6.87775 27.2485 7.33889 25.9613 7.6024C24.913 6.46931 23.44 5.81055 21.768 5.81055C18.6495 5.81055 16.1016 8.34022 16.1016 11.4628C16.1016 11.9107 16.1547 12.3455 16.2476 12.754C11.5234 12.5168 7.31679 10.2638 4.51679 6.8514C4.02579 7.68145 3.74712 8.65642 3.74712 9.6841C3.74712 11.6472 4.74238 13.3864 6.28172 14.3745C5.33954 14.3745 4.46371 14.111 3.69404 13.7158C3.69404 13.7158 3.69404 13.7158 3.69404 13.7553C3.69404 16.4958 5.65802 18.7883 8.25897 19.3021C7.78124 19.4339 7.27698 19.4997 6.75944 19.4997C6.40115 19.4997 6.04285 19.4602 5.69783 19.3943C6.41442 21.621 8.49783 23.2811 11.0059 23.3206C9.06845 24.8489 6.61347 25.7449 3.9329 25.7449C3.48172 25.7449 3.03053 25.7185 2.57935 25.6658C5.10067 27.2732 8.09972 28.2087 11.3111 28.2087C21.768 28.2087 27.5139 19.592 27.5139 12.1215C27.5139 11.8712 27.5139 11.6341 27.5007 11.3837C28.6154 10.5932 29.5708 9.59187 30.3405 8.44562Z" fill="white"/>
</svg>
